<svg width="20" height="16" viewBox="0 0 20 16" fill="none" xmlns="http://www.w3.org/2000/svg">
<path d="M9.97438 8.84973L3.17651 15.6476C2.70665 16.1175 1.94689 16.1175 1.48204 15.6476L0.35239 14.518C-0.117463 14.0481 -0.117463 13.2883 0.35239 12.8235L5.17088 8.005L0.35239 3.1865C-0.117463 2.71665 -0.117463 1.95689 0.35239 1.49203L1.47704 0.35239C1.94689 -0.117463 2.70665 -0.117463 3.17151 0.35239L9.96938 7.15027C10.4442 7.62012 10.4442 8.37988 9.97438 8.84973V8.84973ZM19.5714 7.15027L12.7735 0.35239C12.3037 -0.117463 11.5439 -0.117463 11.079 0.35239L9.94939 1.48204C9.47954 1.95189 9.47954 2.71165 9.94939 3.17651L14.7679 7.995L9.94939 12.8135C9.47954 13.2833 9.47954 14.0431 9.94939 14.508L11.079 15.6376C11.5489 16.1075 12.3087 16.1075 12.7735 15.6376L19.5714 8.83974C20.0412 8.37988 20.0412 7.62012 19.5714 7.15027Z" fill="black"/>
</svg>
