<svg width="20" height="16" viewBox="0 0 20 16" fill="none" xmlns="http://www.w3.org/2000/svg">
<path d="M9.89438 7.17735L16.6045 0.357461C17.0683 -0.113914 17.8244 -0.120049 18.2908 0.343778L19.4241 1.45884C19.8954 1.92263 19.9016 2.67871 19.4378 3.14512L14.6815 7.97922L19.5156 12.7355C19.987 13.1993 19.9931 13.9554 19.5293 14.4218L18.4193 15.565C17.9555 16.0364 17.1994 16.0425 16.733 15.5787L9.91308 8.86856C9.43673 8.40482 9.4306 7.64873 9.89438 7.17735V7.17735ZM0.35752 8.9461L7.17741 15.6562C7.64879 16.12 8.40488 16.1139 8.86369 15.6425L9.97875 14.5092C10.4425 14.0378 10.4364 13.2818 9.96507 12.8229L5.13097 8.06666L9.88725 3.23256C10.351 2.76119 10.3449 2.0051 9.87356 1.54628L8.74026 0.431224C8.26888 -0.0325624 7.5128 -0.0264272 7.05398 0.444907L0.343878 7.2648C-0.11999 7.72623 -0.113855 8.48231 0.35752 8.9461Z" fill="black"/>
</svg>
